<?xml version="1.0" encoding="UTF-8" standalone="no"?>
<svg
   viewBox="-4.5 -4.7 218.60296 80.469475"
   version="1.1"
   id="svg87"
   width="218.60295"
   height="80.469475"
   xmlns:xlink="http://www.w3.org/1999/xlink"
   xmlns="http://www.w3.org/2000/svg"
   xmlns:svg="http://www.w3.org/2000/svg">
  <defs
     id="defs87">
    <filter
       style="color-interpolation-filters:sRGB"
       height="1"
       width="1"
       y="0"
       x="0"
       id="filter87">
      <feColorMatrix
         values="0.95 0.05 0 0 0 0.2583 0.4333 0.5667 0 0 0 0.475 0.525 0 0 0 0 0 1 0 "
         type="matrix"
         result="colormatrix1"
         id="feColorMatrix87" />
    </filter>
  </defs>
  <linearGradient
     id="a"
     gradientUnits="userSpaceOnUse">
    <stop
       offset="0"
       stop-color="#fff"
       id="stop1" />
    <stop
       offset=".15"
       stop-color="#fff"
       stop-opacity=".9"
       id="stop2" />
    <stop
       offset="1"
       stop-color="#fff"
       stop-opacity=".23"
       id="stop3" />
  </linearGradient>
  <linearGradient
     id="d"
     x1="150.75999"
     x2="248.75999"
     y1="104.35"
     y2="351.67999"
     xlink:href="#a" />
  <linearGradient
     id="e"
     x1="329.75"
     x2="427.75"
     y1="33.419998"
     y2="280.76001"
     xlink:href="#a" />
  <radialGradient
     id="f"
     cx="354.78"
     cy="148.45"
     r="224.88"
     gradientTransform="matrix(0.74185302,0,0,-0.74185302,-94.438879,392.61779)"
     gradientUnits="userSpaceOnUse">
    <stop
       offset=".09"
       stop-color="#d1dce7"
       id="stop4" />
    <stop
       offset="0.36119899"
       stop-color="#cfdae5"
       id="stop5" />
    <stop
       offset=".64"
       stop-color="#c9d3dd"
       id="stop6" />
    <stop
       offset=".75"
       stop-color="#c0c9d2"
       id="stop7" />
    <stop
       offset=".94"
       stop-color="#a9afb5"
       id="stop8" />
    <stop
       offset="1"
       stop-color="#a1a6ab"
       id="stop9" />
  </radialGradient>
  <linearGradient
     id="g"
     x1="297.85999"
     x2="298.47"
     y1="34.119999"
     y2="78.120003"
     gradientUnits="userSpaceOnUse"
     gradientTransform="translate(-35.691071,32.291924)">
    <stop
       offset="0"
       stop-color="#647fad"
       id="stop10" />
    <stop
       offset=".38"
       stop-color="#516fa2"
       id="stop11" />
    <stop
       offset="1"
       stop-color="#2a4c8a"
       id="stop12" />
  </linearGradient>
  <radialGradient
     id="h"
     cx="363.57999"
     cy="283.97"
     r="226.97"
     fx="223.24001"
     fy="279.07001"
     gradientTransform="matrix(0.33865331,0.86035282,0.49394615,-0.19597202,-104.1193,41.648667)"
     gradientUnits="userSpaceOnUse">
    <stop
       offset="0"
       stop-color="#93bef2"
       id="stop13" />
    <stop
       offset=".14"
       stop-color="#80b3ef"
       id="stop14" />
    <stop
       offset=".43"
       stop-color="#5095e8"
       id="stop15" />
    <stop
       offset=".45"
       stop-color="#4d93e8"
       id="stop16" />
    <stop
       offset=".6"
       stop-color="#4d92e5"
       id="stop17" />
    <stop
       offset=".72"
       stop-color="#4f8fdb"
       id="stop18" />
    <stop
       offset=".82"
       stop-color="#5189cb"
       id="stop19" />
    <stop
       offset=".86"
       stop-color="#5286c3"
       id="stop20" />
  </radialGradient>
  <radialGradient
     id="i"
     cx="354.10999"
     cy="210.62"
     r="87.220001"
     gradientTransform="matrix(1.9453886,0,0,-1.9453886,-431.22059,613.48539)"
     gradientUnits="userSpaceOnUse">
    <stop
       offset="0"
       stop-color="#b1def4"
       id="stop21" />
    <stop
       offset=".12"
       stop-color="#9bcef2"
       id="stop22" />
    <stop
       offset=".37"
       stop-color="#62a5ec"
       id="stop23" />
    <stop
       offset=".44"
       stop-color="#5098ea"
       id="stop24" />
    <stop
       offset=".69"
       stop-color="#0b86d2"
       id="stop25" />
    <stop
       offset=".73"
       stop-color="#0f7fc5"
       id="stop26" />
    <stop
       offset=".81"
       stop-color="#186da2"
       id="stop27" />
    <stop
       offset=".91"
       stop-color="#274f69"
       id="stop28" />
    <stop
       offset="1"
       stop-color="#363232"
       id="stop29" />
  </radialGradient>
  <linearGradient
     id="j"
     x1="188.31"
     x2="310.29999"
     y1="166.23"
     y2="166.23"
     gradientUnits="userSpaceOnUse">
    <stop
       offset="0"
       id="stop30" />
    <stop
       offset=".07"
       stop-color="#000916"
       id="stop31" />
    <stop
       offset=".23"
       stop-color="#002150"
       id="stop32" />
    <stop
       offset=".46"
       stop-color="#0046ab"
       id="stop33" />
    <stop
       offset=".53"
       stop-color="#0052c9"
       id="stop34" />
    <stop
       offset=".99"
       id="stop35" />
  </linearGradient>
  <linearGradient
     id="b"
     gradientUnits="userSpaceOnUse">
    <stop
       offset=".01"
       stop-color="#b1def4"
       id="stop36" />
    <stop
       offset="1"
       stop-color="#b1def4"
       stop-opacity=".07"
       id="stop37" />
  </linearGradient>
  <linearGradient
     id="k"
     x1="220.28999"
     x2="266.95999"
     y1="173.14"
     y2="173.14"
     xlink:href="#b" />
  <linearGradient
     id="l"
     x1="212.46001"
     x2="210.96001"
     y1="195.83"
     y2="252.83"
     xlink:href="#b" />
  <linearGradient
     id="c"
     gradientUnits="userSpaceOnUse">
    <stop
       offset=".01"
       stop-color="#647fad"
       id="stop38" />
    <stop
       offset=".23"
       stop-color="#5c7197"
       id="stop39" />
    <stop
       offset=".68"
       stop-color="#464d5e"
       id="stop40" />
    <stop
       offset="1"
       stop-color="#363232"
       id="stop41" />
  </linearGradient>
  <linearGradient
     id="m"
     x1="230.39999"
     x2="238.07001"
     y1="262.87"
     y2="286.20001"
     xlink:href="#c" />
  <linearGradient
     id="n"
     x1="204.03"
     x2="320.35999"
     y1="264.22"
     y2="299.22"
     xlink:href="#c" />
  <linearGradient
     id="o"
     x1="298.53"
     x2="314.53"
     y1="218.53"
     y2="261.53"
     gradientUnits="userSpaceOnUse">
    <stop
       offset=".01"
       stop-color="#64b0ad"
       id="stop42" />
    <stop
       offset=".22"
       stop-color="#5c9a97"
       id="stop43" />
    <stop
       offset=".67"
       stop-color="#476160"
       id="stop44" />
    <stop
       offset="1"
       stop-color="#363232"
       id="stop45" />
  </linearGradient>
  <linearGradient
     id="p"
     x1="45.110001"
     x2="136.25"
     y1="260.07001"
     y2="260.07001"
     gradientUnits="userSpaceOnUse">
    <stop
       offset="0"
       stop-color="#fff"
       id="stop46" />
    <stop
       offset=".77"
       stop-color="#fff"
       stop-opacity="0"
       id="stop47" />
  </linearGradient>
  <linearGradient
     id="q"
     x1="273.69"
     x2="378.69"
     y1="99.519997"
     y2="163.52"
     gradientUnits="userSpaceOnUse">
    <stop
       offset=".01"
       stop-color="#fff"
       id="stop48" />
    <stop
       offset="1"
       stop-color="#b1def4"
       stop-opacity=".07"
       id="stop49" />
  </linearGradient>
  <radialGradient
     id="r"
     cx="314.44"
     cy="191.78"
     r="257.59"
     gradientTransform="matrix(1,0,0,-1,-95.53,413.64)"
     gradientUnits="userSpaceOnUse">
    <stop
       offset="0"
       stop-color="#fff"
       id="stop50" />
    <stop
       offset=".74"
       stop-color="#fff"
       stop-opacity=".4"
       id="stop51" />
    <stop
       offset=".86"
       stop-color="#fff"
       stop-opacity=".3"
       id="stop52" />
    <stop
       offset=".88"
       stop-color="#fff"
       stop-opacity=".33"
       id="stop53" />
    <stop
       offset="1"
       stop-color="#fff"
       stop-opacity=".6"
       id="stop54" />
  </radialGradient>
  <g
     id="g2"
     transform="matrix(1,0,0,1.0060632,-8.6516007,-4.2405337)">
    <ellipse
       cx="259.62582"
       cy="249.46428"
       fill="url(#i)"
       rx="167.9454"
       ry="155.63109"
       id="ellipse64"
       style="fill:url(#i);stroke-width:1.94539;filter:url(#filter87)"
       transform="matrix(0.19873226,0.0065154,0,0.19993218,-0.287064,-16.484252)" />
    <path
       fill="url(#g)"
       d="m 134.55893,211.35192 c 0,0 2.32,-4.75 -1.87,-12.12 -4.2,-7.38 -37.8,-59.75 -26.46,-90.42 0,0 57.33,-39.329996 136.83,-30.829996 79.5,8.499996 125,49.499996 145,72.499996 20,23 34.17,65.67 35.17,72.33 1,6.67 -1.5,10.34 -10.33,5.5 -8.84,-4.83 -19.67,-8.33 -39.84,-13.33 -20.16,-5 -42.5,-7 -50.83,-7.5 -8.33,-0.5 -13.83,0 -19.08,-6.17 -5.25,-6.16 -26.92,-38.83 -76.92,-41.5 -50,-2.66 -83,33.1 -91.67,51.54 z"
       id="path63"
       style="fill:url(#g);filter:url(#filter87)"
       transform="matrix(0.20130605,0.0065154,0,0.19993218,-0.554491,-16.484252)" />
    <path
       fill="url(#h)"
       d="m 219.60255,327.3966 c 0,0 -55.18,36.88 -76.68,59.07 -9.2,9.48 -18.88,13.56 0.87,38.3 19.75,24.74 57.5,55.25 91,58.5 0,0 5.67,3.42 12.6,3.6 0,0 -80.67,6.58 -146,-49.42 -65.330001,-56 -98.2500009,-147.85 -67.340001,-232 20.3,-55.3 54.5,-84.16 70.130001,-96.3 8.44,-6.55 15.87,-7.55 15.87,-7.55 0,0 -17.58,5.84 -11.66,31.1 5.1,21.77 16.16,38.82 21.66,44.82 5.5,6 20.67,23.92 21.17,34.25 0.5,10.34 -8.84,41.34 13.5,75 22.34,33.66 54.9,40.63 54.9,40.63 z"
       id="path64"
       style="fill:url(#h);filter:url(#filter87)"
       transform="matrix(0.19873226,0.00626767,0,0.19233024,-0.287064,-15.707754)" />
  </g>
  <g
     id="g1"
     transform="translate(-9.136566,-12.245231)">
    <path
       style="fill:#ffffff;fill-opacity:1;stroke-width:0.23977;filter:url(#filter87)"
       d="m 95.602447,54.887147 c -0.26375,-0.06597 -1.15732,-0.351187 -1.98571,-0.633826 -1.16722,-0.39824 -1.47136,-0.597735 -1.35148,-0.88646 0.0851,-0.204915 0.20899,-0.561391 0.27534,-0.79217 0.15082,-0.524535 0.14921,-0.524614 1.74311,0.08509 0.86525,0.330977 1.89591,0.508909 2.99713,0.517419 2.777993,0.02147 3.956213,-0.968814 3.956213,-3.325146 0,-0.994951 -0.10788,-1.230621 -0.9146,-1.998042 -0.517413,-0.492197 -1.740923,-1.213336 -2.817303,-1.660522 -3.74815,-1.557177 -4.78523,-2.780621 -4.61557,-5.445031 0.17012,-2.671605 1.72301,-3.939851 5.0607,-4.133067 1.83255,-0.106085 4.347413,0.256319 4.598553,0.662675 0.0666,0.107771 8e-4,0.541035 -0.14623,0.962808 -0.22186,0.636439 -0.3539,0.737882 -0.77638,0.596469 -0.27998,-0.09371 -1.43878,-0.220814 -2.575123,-0.282442 -2.9646,-0.160783 -4.26453,0.559766 -4.28022,2.372528 -0.0116,1.341479 0.87242,2.18938 3.68123,3.530763 2.876583,1.373751 3.770813,2.070342 4.444663,3.462328 1.21743,2.51488 0.10174,5.441218 -2.48687,6.522809 -0.943843,0.39436 -3.910253,0.668214 -4.807453,0.443815 z"
       id="path158" />
    <path
       style="fill:#ffffff;fill-opacity:1;stroke-width:0.23977;filter:url(#filter87)"
       d="m 95.602447,54.887147 c -0.26375,-0.06597 -1.15732,-0.351187 -1.98571,-0.633826 -1.16722,-0.39824 -1.47136,-0.597735 -1.35148,-0.88646 0.0851,-0.204915 0.20899,-0.561391 0.27534,-0.79217 0.15082,-0.524535 0.14921,-0.524614 1.74311,0.08509 0.86525,0.330977 1.89591,0.508909 2.99713,0.517419 2.777993,0.02147 3.956213,-0.968814 3.956213,-3.325146 0,-0.994951 -0.10788,-1.230621 -0.9146,-1.998042 -0.517413,-0.492197 -1.740923,-1.213336 -2.817303,-1.660522 -3.74815,-1.557177 -4.78523,-2.780621 -4.61557,-5.445031 0.17012,-2.671605 1.72301,-3.939851 5.0607,-4.133067 1.83255,-0.106085 4.347413,0.256319 4.598553,0.662675 0.0666,0.107771 8e-4,0.541035 -0.14623,0.962808 -0.21976,0.630419 -0.3579,0.738598 -0.77638,0.60801 -0.27998,-0.08737 -1.34706,-0.218235 -2.371293,-0.290817 -1.42829,-0.101215 -2.11337,-0.03606 -2.93992,0.279604 -1.21616,0.464453 -1.55176,0.925963 -1.55176,2.133938 0,1.294443 0.92061,2.16457 3.68886,3.486583 2.876583,1.373751 3.770813,2.070342 4.444663,3.462328 1.21743,2.51488 0.10174,5.441218 -2.48687,6.522809 -0.943843,0.39436 -3.910253,0.668214 -4.807453,0.443815 z"
       id="path159" />
    <path
       style="fill:#ffffff;fill-opacity:1;stroke-width:0.23977;filter:url(#filter87)"
       d="m 95.602447,54.887147 c -0.26375,-0.06597 -1.15732,-0.351187 -1.98571,-0.633826 -1.16722,-0.39824 -1.47136,-0.597735 -1.35148,-0.88646 0.0851,-0.204915 0.20899,-0.561391 0.27534,-0.79217 0.15082,-0.524535 0.14921,-0.524614 1.74311,0.08509 0.86525,0.330977 1.89591,0.508909 2.99713,0.517419 2.777993,0.02147 3.956213,-0.968814 3.956213,-3.325146 0,-0.994951 -0.10788,-1.230621 -0.9146,-1.998042 -0.517413,-0.492197 -1.740923,-1.213336 -2.817303,-1.660522 -3.74815,-1.557177 -4.78523,-2.780621 -4.61557,-5.445031 0.17012,-2.671605 1.72301,-3.939851 5.0607,-4.133067 1.83255,-0.106085 4.347413,0.256319 4.598553,0.662675 0.0666,0.107771 8e-4,0.541035 -0.14623,0.962808 -0.22186,0.636439 -0.3539,0.737882 -0.77638,0.596469 -0.27998,-0.09371 -1.43754,-0.220768 -2.572373,-0.28234 -1.75023,-0.09496 -2.20962,-0.03731 -3.0275,0.379942 -1.05935,0.54044 -1.2631,0.874675 -1.2631,2.072037 0,1.255276 0.94817,2.142358 3.68886,3.45121 2.876583,1.373751 3.770813,2.070342 4.444663,3.462328 1.21743,2.51488 0.10174,5.441218 -2.48687,6.522809 -0.943843,0.39436 -3.910253,0.668214 -4.807453,0.443815 z"
       id="path160" />
    <path
       style="fill:#ffffff;fill-opacity:1;stroke-width:0.23977;filter:url(#filter87)"
       d="m 95.602447,54.887147 c -0.26375,-0.06597 -1.15732,-0.351187 -1.98571,-0.633826 -1.16722,-0.39824 -1.47136,-0.597735 -1.35148,-0.88646 0.0851,-0.204915 0.20899,-0.561391 0.27534,-0.79217 0.15082,-0.524535 0.14921,-0.524614 1.74311,0.08509 0.86525,0.330977 1.89591,0.508909 2.99713,0.517419 2.777993,0.02147 3.956213,-0.968814 3.956213,-3.325146 0,-0.994951 -0.10788,-1.230621 -0.9146,-1.998042 -0.517413,-0.492197 -1.740923,-1.213336 -2.817303,-1.660522 -3.74815,-1.557177 -4.78523,-2.780621 -4.61557,-5.445031 0.17012,-2.671605 1.72301,-3.939851 5.0607,-4.133067 1.83255,-0.106085 4.347413,0.256319 4.598553,0.662675 0.0666,0.107771 8e-4,0.541035 -0.14623,0.962808 -0.22186,0.636439 -0.3539,0.737882 -0.77638,0.596469 -0.27998,-0.09371 -1.43878,-0.220814 -2.575123,-0.282442 -2.9646,-0.160783 -4.26453,0.559766 -4.28022,2.372528 -0.0116,1.341479 0.87242,2.18938 3.68123,3.530763 2.876583,1.373751 3.770813,2.070342 4.444663,3.462328 1.21743,2.51488 0.10174,5.441218 -2.48687,6.522809 -0.943843,0.39436 -3.910253,0.668214 -4.807453,0.443815 z"
       id="path161" />
    <path
       d="m 97.267047,55.138235 q -1.34,0 -2.56404,-0.322114 -1.22404,-0.335003 -2.78307,-1.082307 l 0.8375,-1.919807 q 1.45596,0.747308 2.49961,1.04365 1.05654,0.283463 2.08731,0.283463 2.02288,0 2.937683,-0.850384 0.92769,-0.863268 0.92769,-2.267689 0,-1.017883 -0.51538,-1.687884 -0.5025,-0.68288 -1.262693,-1.095191 -0.74731,-0.412306 -2.06154,-0.940575 -1.54615,-0.631345 -2.48672,-1.172499 -0.9277,-0.541153 -1.58481,-1.52038 -0.65711,-0.979232 -0.65711,-2.499612 0,-2.396537 1.62345,-3.569035 1.62346,-1.185383 4.34212,-1.185383 2.203263,0 4.367873,0.863268 l -0.8375,2.022883 -0.32211,-0.115964 q -0.79884,-0.309231 -1.49461,-0.476728 -0.695773,-0.1675 -1.675003,-0.1675 -1.66211,0 -2.74442,0.605577 -1.06942,0.592693 -1.06942,1.894034 0,0.811733 0.46385,1.391538 0.47673,0.579805 1.17249,0.979231 0.69577,0.386539 1.94557,0.940576 1.623463,0.708652 2.641353,1.327114 1.01788,0.618461 1.73942,1.700763 0.72154,1.082307 0.72154,2.705767 0,1.57192 -0.73443,2.731535 -0.73442,1.146731 -2.13884,1.765192 -1.404423,0.618461 -3.375763,0.618461 z"
       id="text150"
       style="font-size:53.3333px;font-family:Selawik;-inkscape-font-specification:'Selawik, Normal';white-space:pre;inline-size:274.986;stroke-width:0.494769"
       aria-label="S" />
    <path
       d="m 116.96793,55.499001 q -0.74731,-1.339998 -1.05654,-2.52538 -0.19327,0.52827 -0.7473,1.056535 -0.54116,0.528269 -1.41731,0.88904 -0.86327,0.360766 -1.97134,0.360766 -1.81673,0 -2.93769,-0.708653 -1.12097,-0.708653 -1.59769,-1.829611 -0.47673,-1.133847 -0.47673,-2.486728 v -7.795183 h 2.11307 v 7.138071 q 0,1.687879 0.69577,2.705762 0.70865,1.017883 2.66711,1.017883 1.45596,0 2.40942,-0.68288 0.95346,-0.695769 0.95346,-2.306345 v -7.885375 h 2.11308 v 8.29768 q 0.0129,1.89404 1.12096,3.89115 z"
       id="text149"
       style="font-size:53.3333px;font-family:Selawik;-inkscape-font-specification:'Selawik, Normal';white-space:pre;inline-size:274.986;stroke-width:0.494769"
       aria-label="u" />
    <path
       d="m 128.48645,42.111905 q 1.77807,0 3.04076,0.747304 1.27558,0.734425 1.93269,2.164614 0.67,1.417305 0.67,3.41442 0,2.10019 -0.69577,3.646343 -0.69576,1.533264 -2.07442,2.370764 -1.36576,0.8375 -3.33711,0.8375 -3.05365,0 -3.90403,-2.241921 v 8.001333 h -2.12596 V 42.446903 h 1.57192 l 0.5025,1.597693 q 0.86327,-0.927691 1.99711,-1.430194 1.14673,-0.502497 2.42231,-0.502497 z m -0.30924,11.209598 q 1.05654,0 1.88116,-0.515381 0.8375,-0.515386 1.31423,-1.610577 0.48961,-1.108074 0.48961,-2.783075 0,-1.997109 -0.95346,-3.0923 -0.94058,-1.095191 -2.67999,-1.095191 -0.99212,0 -2.06154,0.347882 -1.05654,0.335003 -2.04865,0.953459 v 4.084421 q 0,1.417305 0.67,2.254806 0.67,0.824611 1.5848,1.146725 0.92769,0.309231 1.80384,0.309231 z"
       id="text148"
       style="font-size:53.3333px;font-family:Selawik;-inkscape-font-specification:'Selawik, Normal';white-space:pre;inline-size:274.986;stroke-width:0.494769"
       aria-label="p" />
    <path
       d="m 143.43227,53.347276 q 0.86327,0 1.82961,-0.193272 0.96634,-0.193267 1.93269,-0.566921 l 0.65712,1.803843 q -0.91481,0.386538 -2.31923,0.644229 -1.40442,0.257695 -2.55115,0.257695 -3.04077,0 -4.71577,-1.62346 -1.67499,-1.636344 -1.67499,-5.024997 0,-2.113073 0.73442,-3.581914 0.74731,-1.481729 2.15173,-2.241921 1.40442,-0.760193 3.37576,-0.760193 1.73943,0 2.91192,0.811728 1.1725,0.798849 1.73942,2.10019 0.56692,1.288462 0.56692,2.770191 0,1.017883 -0.28346,2.035766 l -8.96768,0.06442 q 0.28346,1.73942 1.44308,2.628455 1.15961,0.876157 3.16961,0.876157 z M 142.569,44.083248 q -1.82961,0 -2.7573,1.056539 -0.9277,1.056534 -1.05654,2.847494 l 6.97057,-0.06442 q 0.0258,-0.309231 0.0258,-0.463846 0,-0.876151 -0.32211,-1.636344 -0.32211,-0.773076 -1.04365,-1.249806 -0.70865,-0.489613 -1.81673,-0.489613 z"
       id="text147"
       style="font-size:53.3333px;font-family:Selawik;-inkscape-font-specification:'Selawik, Normal';white-space:pre;inline-size:274.986;stroke-width:0.494769"
       aria-label="e" />
    <path
       d="m 153.18592,43.658058 q 1.32711,-1.533269 3.40153,-1.533269 0.57981,0 1.21115,0.115959 l -0.36076,2.009999 q -0.36077,-0.03864 -0.70866,-0.03864 -1.99711,0 -3.31134,1.236922 v 9.547486 h -2.11307 v -12.5496 h 1.59769 z"
       id="text146"
       style="font-size:53.3333px;font-family:Selawik;-inkscape-font-specification:'Selawik, Normal';white-space:pre;inline-size:274.986;stroke-width:0.494769"
       aria-label="r" />
    <path
       d="m 174.56212,42.111905 q 1.5075,0 2.53826,0.644229 1.04365,0.644229 1.55904,1.778076 0.51539,1.133842 0.52827,2.602687 v 7.859607 h -2.11307 V 47.72959 q -0.0258,-1.597692 -0.67001,-2.589803 -0.64422,-1.004999 -2.11307,-1.004999 -1.04365,0 -1.97134,0.373649 -0.91481,0.360771 -1.59769,1.004999 0.18038,0.785961 0.18038,1.623461 v 7.859607 h -2.11307 V 47.72959 q -0.0258,-1.597692 -0.67,-2.589803 -0.64423,-1.004999 -2.11308,-1.004999 -0.97923,0 -1.85538,0.373649 -0.87615,0.360771 -1.55904,1.017883 l -0.0258,9.470184 h -2.11308 l 0.0258,-12.549601 h 1.55904 l 0.39942,1.236923 q 1.45596,-1.571921 3.83961,-1.571921 1.31423,0 2.26769,0.489614 0.96635,0.489613 1.53327,1.391537 1.88115,-1.881151 4.48384,-1.881151 z"
       id="text145"
       style="font-size:53.3333px;font-family:Selawik;-inkscape-font-specification:'Selawik, Normal';white-space:pre;inline-size:274.986;stroke-width:0.494769"
       aria-label="m" />
    <path
       d="m 184.29,38.517101 q -0.61846,0 -1.03076,-0.412307 -0.41231,-0.412307 -0.41231,-1.030768 0,-0.605576 0.41231,-1.017884 0.4123,-0.412307 1.03076,-0.412307 0.60558,0 1.01789,0.412307 0.4123,0.412308 0.4123,1.017884 0,0.618461 -0.4123,1.030768 -0.41231,0.412307 -1.01789,0.412307 z m -1.09519,3.929802 h 2.11308 v 12.549601 h -2.11308 z"
       id="text144"
       style="font-size:53.3333px;font-family:Selawik;-inkscape-font-specification:'Selawik, Normal';white-space:pre;inline-size:274.986;stroke-width:0.494769"
       aria-label="i" />
    <path
       d="m 199.5064,55.499001 q -0.74731,-1.339998 -1.05654,-2.52538 -0.19327,0.52827 -0.74731,1.056535 -0.54115,0.528269 -1.4173,0.88904 -0.86327,0.360766 -1.97135,0.360766 -1.81672,0 -2.93769,-0.708653 -1.12096,-0.708653 -1.59769,-1.829611 -0.47673,-1.133847 -0.47673,-2.486728 v -7.795183 h 2.11308 v 7.138071 q 0,1.687879 0.69577,2.705762 0.70865,1.017883 2.66711,1.017883 1.45596,0 2.40942,-0.68288 0.95346,-0.695769 0.95346,-2.306345 v -7.885375 h 2.11307 v 8.29768 q 0.0129,1.89404 1.12097,3.89115 z"
       id="text143"
       style="font-size:53.3333px;font-family:Selawik;-inkscape-font-specification:'Selawik, Normal';white-space:pre;inline-size:274.986;stroke-width:0.494769"
       aria-label="u" />
    <path
       d="m 218.61394,42.111905 q 1.5075,0 2.53827,0.644229 1.04365,0.644229 1.55904,1.778076 0.51538,1.133842 0.52826,2.602687 v 7.859607 h -2.11307 V 47.72959 q -0.0258,-1.597692 -0.67,-2.589803 -0.64423,-1.004999 -2.11307,-1.004999 -1.04366,0 -1.97135,0.373649 -0.9148,0.360771 -1.59769,1.004999 0.18039,0.785961 0.18039,1.623461 v 7.859607 h -2.11308 V 47.72959 q -0.0258,-1.597692 -0.66999,-2.589803 -0.64424,-1.004999 -2.11308,-1.004999 -0.97923,0 -1.85538,0.373649 -0.87615,0.360771 -1.55904,1.017883 l -0.0258,9.470184 h -2.11307 l 0.0258,-12.549601 h 1.55903 l 0.39943,1.236923 q 1.45595,-1.571921 3.83961,-1.571921 1.31423,0 2.26769,0.489614 0.96634,0.489613 1.53326,1.391537 1.88116,-1.881151 4.48384,-1.881151 z"
       id="text142"
       style="font-size:53.3333px;font-family:Selawik;-inkscape-font-specification:'Selawik, Normal';white-space:pre;inline-size:274.986;stroke-width:0.494769"
       aria-label="m" />
    <path
       style="fill:#000000;stroke-width:0.47847"
       d="m 93.645607,54.136134 c -1.1616,-0.42399 -1.43392,-0.730961 -1.11082,-1.252188 0.34912,-0.563224 0.65897,-0.585272 1.68097,-0.119618 1.55256,0.707393 4.30655,0.73871 5.56852,0.06332 1.309653,-0.700904 1.943313,-2.559052 1.378923,-4.043533 -0.31251,-0.821951 -1.456133,-1.679094 -3.618283,-2.711892 -3.67038,-1.753242 -4.63542,-2.949254 -4.42503,-5.484125 0.12084,-1.455878 0.48237,-2.040895 1.82533,-2.953719 1.43392,-0.974646 2.07556,-1.103252 4.46365,-0.894659 3.128153,0.273234 3.329463,0.369153 2.934583,1.398193 -0.21288,0.554774 -0.65249,0.645135 -1.8379,0.377781 -3.565343,-0.804114 -6.441683,0.708967 -5.847573,3.076083 0.22631,0.901678 1.15462,1.641859 3.60983,2.878287 1.817853,0.915453 3.644083,2.148309 4.058293,2.73968 0.8585,1.225679 0.98924,3.833297 0.26046,5.195029 -1.14815,2.145349 -5.498693,2.987803 -8.940953,1.731359 z"
       id="path150" />
    <path
       style="fill:#000000;stroke-width:0.47847"
       d="m 93.415937,54.120244 c -0.90645,-0.402378 -1.1707,-0.765747 -0.8887,-1.222033 0.32009,-0.517916 0.71678,-0.539413 1.95953,-0.106187 3.21754,1.121642 5.888863,0.467144 6.689633,-1.63902 0.78959,-2.076786 -0.17867,-3.431465 -3.631483,-5.080779 -3.67038,-1.753242 -4.63542,-2.949254 -4.42503,-5.484125 0.12084,-1.455878 0.48237,-2.040895 1.82533,-2.953719 1.43392,-0.974646 2.07556,-1.103252 4.46365,-0.894659 1.533953,0.133986 2.884723,0.339325 3.001703,0.456308 0.38074,0.380733 -0.37607,1.7873 -0.81552,1.515704 -0.23483,-0.145131 -1.53111,-0.272427 -2.880623,-0.28288 -3.01087,-0.02332 -4.55645,1.170772 -4.06253,3.138674 0.23358,0.930661 1.13141,1.651364 3.61591,2.902538 1.817853,0.915453 3.644083,2.148309 4.058293,2.73968 0.8585,1.225679 0.98924,3.833297 0.26046,5.195029 -1.145,2.13945 -6.119333,3.069956 -9.170623,1.715469 z"
       id="path151" />
    <path
       style="fill:#000000;stroke-width:0.47847"
       d="m 93.415937,54.120244 c -0.90645,-0.402378 -1.1707,-0.765747 -0.8887,-1.222033 0.32009,-0.517916 0.71678,-0.539413 1.95953,-0.106187 3.84733,1.341187 6.865463,0.08076 6.782633,-2.83255 -0.052,-1.829233 -0.62094,-2.375865 -4.327903,-4.158277 -3.07011,-1.476197 -4.02379,-2.777127 -3.82161,-5.213097 0.12084,-1.455878 0.48237,-2.040895 1.82533,-2.953719 1.43392,-0.974646 2.07556,-1.103252 4.46365,-0.894659 3.094663,0.270309 3.326763,0.375044 2.959633,1.335576 -0.18918,0.494947 -1.00136,0.6244 -3.154463,0.502784 -2.25171,-0.127186 -3.10612,0.02304 -3.82349,0.672245 -1.88018,1.70154 -0.75395,3.417641 3.70798,5.650057 2.918323,1.460111 3.980693,2.7903 3.980693,4.984219 0,2.101646 -0.67434,3.279893 -2.38278,4.163363 -1.641973,0.849095 -5.445483,0.886855 -7.280503,0.07228 z"
       id="path152" />
    <path
       style="fill:#000000;stroke-width:0.47847"
       d="m 160.49565,48.789744 c 0,-4.840993 0.12919,-5.980878 0.67783,-5.980878 0.37281,0 0.75909,0.243771 0.85841,0.541713 0.12485,0.374569 0.64653,0.300754 1.69076,-0.239236 2.01466,-1.041824 3.56225,-0.984486 5.05176,0.187169 l 1.23076,0.968116 1.58497,-0.966328 c 1.88131,-1.147001 3.29916,-1.221461 5.13928,-0.269895 1.79967,0.930643 2.01788,1.599691 2.30764,7.075133 0.23923,4.520677 0.21527,4.665085 -0.77404,4.665085 -0.97059,0 -1.02091,-0.224041 -1.02091,-4.545468 0,-3.988246 -0.12391,-4.66938 -1.0108,-5.556271 -0.7843,-0.784302 -1.38356,-0.950315 -2.67428,-0.740859 -2.80402,0.455029 -3.0135,0.880214 -3.0135,6.116482 0,3.882012 -0.12819,4.726116 -0.71771,4.726116 -0.58135,0 -0.7177,-0.768367 -0.7177,-4.044484 0,-5.830667 -1.05884,-7.518852 -4.21847,-6.725834 -2.30162,0.577669 -2.48012,1.012673 -2.48012,6.044202 0,4.407136 -0.0646,4.726116 -0.95694,4.726116 -0.9059,0 -0.95694,-0.31898 -0.95694,-5.980879 z"
       id="path154" />
    <path
       style="fill:#000000;stroke-width:0.47847"
       d="m 160.49565,48.789744 c 0,-4.840993 0.12919,-5.980878 0.67783,-5.980878 0.37281,0 0.75909,0.243771 0.85841,0.541713 0.12485,0.374569 0.64653,0.300754 1.69076,-0.239236 2.01466,-1.041824 3.56225,-0.984486 5.05176,0.187169 l 1.23076,0.968116 1.58497,-0.966328 c 1.89094,-1.152869 3.29946,-1.221304 5.17498,-0.251432 1.74824,0.904048 2.38462,3.039435 2.3882,8.01361 0.002,3.390054 -0.0794,3.708145 -0.95427,3.708145 -0.88978,0 -0.95694,-0.31898 -0.95694,-4.545468 0,-3.907507 -0.13431,-4.679775 -0.95694,-5.502408 -1.14523,-1.145236 -2.42455,-1.212288 -4.32999,-0.226948 l -1.41165,0.729993 v 4.772415 c 0,3.923168 -0.12772,4.772416 -0.71771,4.772416 -0.57701,0 -0.7177,-0.736354 -0.7177,-3.756363 0,-5.997125 -1.08463,-7.800501 -4.21847,-7.013955 -2.30162,0.577669 -2.48012,1.012673 -2.48012,6.044202 0,4.407136 -0.0646,4.726116 -0.95694,4.726116 -0.9059,0 -0.95694,-0.31898 -0.95694,-5.980879 z"
       id="path155" />
  </g>
</svg>
